<svg xmlns="http://www.w3.org/2000/svg" fill="none" viewBox="0 0 64 64">
  <defs/>
  <path stroke="#00B7CD" stroke-miterlimit="10" d="M38.21 19.85h5.5v7.5"/>
  <path stroke="#00756A" stroke-miterlimit="10" d="M11.9 46.98L4.71 54.173l3.182 3.182 7.191-7.191L11.9 46.98zM18.34 43.72l-4.85 4.86"/>
  <path stroke="#00B7CD" stroke-miterlimit="10" d="M42.21 34.85h-12.5v-15.5"/>
  <path stroke="#00756A" stroke-miterlimit="10" d="M41.25 13.01l1.07-4.47-4.47 1.07 3.4 3.4zM56.33 37.84l-5.62-2.95-.09 6.35 5.71-3.4zM55.21 25.85a4.5 4.5 0 100-9 4.5 4.5 0 000 9zM26.01 10.14l-2.23 2.24M23.78 10.14l2.23 2.24M53.71 5.35l-2.23 2.24M51.48 5.35l2.23 2.24M45.12 44.67a19.771 19.771 0 01-4.18 4.09 19.695 19.695 0 01-11.6 3.75c-2.23 0-4.38-.37-6.39-1.05M43.09 50.22a22.17 22.17 0 01-13.76 4.76c-1.45 0-2.87-.14-4.24-.4M45.17 48.36c-.15.15-.31.31-.47.46-.19.18-.38.36-.57.53"/>
  <path stroke="#00756A" stroke-miterlimit="10" d="M29.34 48.28c8.594 0 15.56-6.967 15.56-15.56 0-8.594-6.966-15.56-15.56-15.56-8.593 0-15.56 6.966-15.56 15.56 0 8.593 6.967 15.56 15.56 15.56z"/>
  <path stroke="#00756A" stroke-miterlimit="10" d="M29.34 45.68c7.158 0 12.96-5.803 12.96-12.96 0-7.158-5.802-12.96-12.96-12.96-7.158 0-12.96 5.802-12.96 12.96 0 7.157 5.802 12.96 12.96 12.96z"/>
</svg>
